<svg width="361" height="341" viewBox="0 0 361 341" fill="none" xmlns="http://www.w3.org/2000/svg">
<g filter="url(#filter0_d)">
<path d="M180.5 13C211.255 13 241.319 22.1199 266.891 39.2065C292.463 56.293 312.394 80.5788 324.163 108.993C335.933 137.407 339.012 168.672 333.012 198.836C327.012 229.001 312.202 256.708 290.455 278.455C268.708 300.202 241.001 315.012 210.836 321.012C180.672 327.012 149.407 323.933 120.993 312.163C92.5788 300.394 68.293 280.463 51.2065 254.891C34.1199 229.319 25 199.255 25 168.5C25 127.259 41.383 87.7068 70.5449 58.5449C99.7068 29.383 139.259 13 180.5 13V13Z" fill="url(#paint0_linear)"/>
</g>
<path d="M234.804 184.297L234.719 185.002C214.06 174.702 211.9 173.329 209.231 177.333C207.381 180.106 201.988 186.393 200.363 188.254C198.719 190.087 197.084 190.228 194.294 188.959C191.476 187.549 182.428 184.589 171.718 175.002C163.376 167.531 157.777 158.367 156.123 155.548C153.371 150.792 159.13 150.116 164.372 140.191C165.311 138.217 164.832 136.667 164.137 135.266C163.432 133.856 157.824 120.041 155.475 114.534C153.22 109.045 150.9 109.74 149.162 109.74C143.751 109.27 139.795 109.346 136.31 112.973C121.147 129.646 124.971 146.845 137.945 165.134C163.442 198.517 177.027 204.663 201.866 213.197C208.574 215.33 214.69 215.03 219.528 214.334C224.921 213.479 236.129 207.558 238.468 200.932C240.863 194.306 240.863 188.808 240.159 187.54C239.464 186.271 237.622 185.566 234.804 184.297Z" fill="white"/>
<path d="M264.526 80.8993C191.423 10.2316 70.4407 61.4854 70.3931 161.179C70.3931 181.106 75.6127 200.539 85.5575 217.7L69.4329 276.284L129.663 260.578C204.819 301.174 297.574 247.267 297.612 161.236C297.612 131.041 285.823 102.623 264.383 81.27L264.526 80.8993ZM278.616 160.922C278.559 233.491 198.896 278.813 135.89 241.772L132.467 239.738L96.8144 249.007L106.369 214.353L104.097 210.788C64.8883 148.373 109.935 66.7999 184.207 66.7999C209.44 66.7999 233.123 76.64 250.959 94.4662C268.785 112.14 278.616 135.823 278.616 160.922Z" fill="white"/>
<defs>
<filter id="filter0_d" x="18" y="7" width="329" height="329" filterUnits="userSpaceOnUse" color-interpolation-filters="sRGB">
<feFlood flood-opacity="0" result="BackgroundImageFix"/>
<feColorMatrix in="SourceAlpha" type="matrix" values="0 0 0 0 0 0 0 0 0 0 0 0 0 0 0 0 0 0 127 0"/>
<feOffset dx="2" dy="3"/>
<feGaussianBlur stdDeviation="4.5"/>
<feColorMatrix type="matrix" values="0 0 0 0 0 0 0 0 0 0 0 0 0 0 0 0 0 0 0.25 0"/>
<feBlend mode="normal" in2="BackgroundImageFix" result="effect1_dropShadow"/>
<feBlend mode="normal" in="SourceGraphic" in2="effect1_dropShadow" result="shape"/>
</filter>
<linearGradient id="paint0_linear" x1="180.5" y1="13" x2="180.5" y2="324" gradientUnits="userSpaceOnUse">
<stop stop-color="#108E07"/>
<stop offset="1" stop-color="#3EBC2A"/>
</linearGradient>
</defs>
</svg>
